<svg xmlns="http://www.w3.org/2000/svg" width="258.062" height="78.006" viewBox="0 0 258.062 78.006">
  <g id="logo_login" transform="translate(-53.1 -52.73)">
    <g id="Grupo_3970" data-name="Grupo 3970" transform="translate(122.325 52.73)">
      <g id="Grupo_3968" data-name="Grupo 3968">
        <path id="Caminho_2547" data-name="Caminho 2547" d="M217.592,122.878c-.8.534-1.534,1-2.268,1.4a51.423,51.423,0,0,1-17.609,5.936,44.4,44.4,0,0,1-19.41-1.267A27,27,0,0,1,161.5,114.741a39.891,39.891,0,0,1-3.668-11.606,67.17,67.17,0,0,1-.934-12.673,45.319,45.319,0,0,1,3.869-18.209c4.869-10.472,13.073-16.742,24.412-18.809a38.63,38.63,0,0,1,22.611,2.334,35.719,35.719,0,0,1,8.6,5.336,6.011,6.011,0,0,1,.6.667,94.681,94.681,0,0,1-8.738,9.071c-.6-.4-1.267-.8-1.868-1.267a21.574,21.574,0,0,0-17.342-3.735,15.243,15.243,0,0,0-9.738,6.937,26.665,26.665,0,0,0-3.535,9.2,55.914,55.914,0,0,0-.734,14.541,52.753,52.753,0,0,0,1.2,9.138,22.6,22.6,0,0,0,2.4,6.2,11.749,11.749,0,0,0,10.072,5.936,22.421,22.421,0,0,0,8.671-.934c1.067-.4,2.134-.867,3.068-1.267.267-2.068.267-14.741,0-16.942a7.2,7.2,0,0,0-1.267-.2h-6c-.667,0-1.4-.067-2.068-.067a3.394,3.394,0,0,1-.267-.934c-.534-3.6-1-7.137-1.534-10.739a3.1,3.1,0,0,1,2.268-.4h24.279c.467,0,.867.067,1.2.067a.937.937,0,0,0,.267.267.245.245,0,0,1,.067.2c0,.4.067.8.067,1.134C217.592,99.533,217.592,111.072,217.592,122.878Z" transform="translate(-156.885 -52.73)" fill="rgba(0,109,104,0.97)"/>
      </g>
      <g id="Grupo_3969" data-name="Grupo 3969" transform="translate(125.739 9.985)">
        <path id="Caminho_2548" data-name="Caminho 2548" d="M397.14,91.712V67.7H383v38.086h38.019V91.712Z" transform="translate(-357.921 -67.7)" fill="rgba(0,109,104,0.97)"/>
        <path id="Caminho_2549" data-name="Caminho 2549" d="M345.4,103.7v14.074h25.146V143.32H384.62V103.7Z" transform="translate(-345.4 -79.688)" fill="#82ba26"/>
      </g>
      <path id="Caminho_2550" data-name="Caminho 2550" d="M265.5,55.5h44.155l-1.6,12.473H283.309V87.649h21.477v12.94H283.309l.2,29.215H265.5Z" transform="translate(-193.054 -53.652)" fill="rgba(0,109,104,0.97)"/>
    </g>
    <path id="Caminho_2551" data-name="Caminho 2551" d="M101.324,130.037h18.943l-22.678-74.9h-.667L97.055,55H75.778L53.1,129.9H72.043l3.869-16.341H97.389ZM78.913,101.09,86.65,68.673h0l.067.133,7.67,32.349H78.913Z" transform="translate(0 -0.756)" fill="rgba(0,109,104,0.97)"/>
  </g>
</svg>
